<svg xmlns="http://www.w3.org/2000/svg" xmlns:xlink="http://www.w3.org/1999/xlink" width="500" zoomAndPan="magnify" viewBox="0 0 375 374.999991" height="500" preserveAspectRatio="xMidYMid meet" version="1.0"><defs><clipPath id="e5ab02be6d"><path d="M 128.617188 100.085938 L 196.230469 100.085938 L 196.230469 216.828125 L 128.617188 216.828125 Z M 128.617188 100.085938 " clip-rule="nonzero"/></clipPath><clipPath id="e1099f1e99"><path d="M 192.867188 138.957031 C 194.898438 144.914062 196.230469 151.726562 196.230469 158.394531 C 196.230469 165.0625 195.085938 171.476562 193.054688 177.390625 C 192.992188 177.515625 192.992188 177.640625 192.929688 177.765625 C 184.800781 199.96875 163.335938 216.324219 139.9375 216.640625 L 128.617188 216.640625 L 128.617188 100.085938 L 139.929688 100.085938 C 163.464844 100.398438 184.925781 116.503906 192.867188 138.957031 Z M 192.867188 138.957031 " clip-rule="nonzero"/></clipPath><clipPath id="b6fd0840bf"><path d="M 120.171875 115.25 L 178.75 115.25 L 178.75 201.515625 L 120.171875 201.515625 Z M 120.171875 115.25 " clip-rule="nonzero"/></clipPath><clipPath id="4a962b7147"><path d="M 176.253906 144.007812 C 177.761719 148.414062 178.75 153.453125 178.75 158.386719 C 178.75 163.316406 177.902344 168.0625 176.394531 172.4375 C 176.347656 172.53125 176.347656 172.625 176.300781 172.71875 C 170.273438 189.144531 154.359375 201.242188 136.824219 201.472656 L 120.171875 201.472656 L 120.171875 115.25 L 136.8125 115.25 C 154.453125 115.484375 170.367188 127.394531 176.253906 144.007812 Z M 176.253906 144.007812 " clip-rule="nonzero"/></clipPath><clipPath id="78397213ac"><path d="M 212.324219 158.363281 L 279.9375 158.363281 L 279.9375 275 L 212.324219 275 Z M 212.324219 158.363281 " clip-rule="nonzero"/></clipPath><clipPath id="e5f1921fbb"><path d="M 276.574219 197.234375 C 278.605469 203.191406 279.9375 210.003906 279.9375 216.671875 C 279.9375 223.339844 278.796875 229.753906 276.761719 235.667969 C 276.699219 235.792969 276.699219 235.917969 276.636719 236.042969 C 268.507812 258.246094 247.042969 274.601562 223.644531 274.917969 L 212.324219 274.917969 L 212.324219 158.363281 L 223.636719 158.363281 C 247.171875 158.675781 268.636719 174.777344 276.574219 197.234375 Z M 276.574219 197.234375 " clip-rule="nonzero"/></clipPath><clipPath id="83b2dbec3c"><path d="M 204.484375 173.53125 L 262.460938 173.53125 L 262.460938 259.8125 L 204.484375 259.8125 Z M 204.484375 173.53125 " clip-rule="nonzero"/></clipPath><clipPath id="6c5110ba7d"><path d="M 259.964844 202.285156 C 261.472656 206.691406 262.460938 211.734375 262.460938 216.664062 C 262.460938 221.597656 261.613281 226.34375 260.105469 230.71875 C 260.058594 230.8125 260.058594 230.902344 260.011719 230.996094 C 253.984375 247.421875 238.070312 259.519531 220.546875 259.753906 L 204.484375 259.753906 L 204.484375 173.53125 L 220.535156 173.53125 C 238.164062 173.761719 254.078125 185.675781 259.964844 202.285156 Z M 259.964844 202.285156 " clip-rule="nonzero"/></clipPath></defs><rect x="-37.5" width="450" fill="#ffffff" y="-37.499999" height="449.999989" fill-opacity="1"/><rect x="-37.5" width="450" fill="#221e34" y="-37.499999" height="449.999989" fill-opacity="1"/><g clip-path="url(#e5ab02be6d)"><g clip-path="url(#e1099f1e99)"><path fill="#ebebeb" d="M 196.230469 100.085938 L 196.230469 216.5625 L 128.617188 216.5625 L 128.617188 100.085938 Z M 196.230469 100.085938 " fill-opacity="1" fill-rule="nonzero"/></g></g><g clip-path="url(#b6fd0840bf)"><g clip-path="url(#4a962b7147)"><path fill="#221e34" d="M 178.75 115.25 L 178.75 201.515625 L 120.171875 201.515625 L 120.171875 115.25 Z M 178.75 115.25 " fill-opacity="1" fill-rule="nonzero"/></g></g><path stroke-linecap="butt" transform="matrix(0, 0.75, -0.75, 0, 112.295491, 100.090013)" fill="none" stroke-linejoin="miter" d="M -0.000226237 11.498155 L 155.406034 11.498155 " stroke="#ebebeb" stroke-width="23" stroke-opacity="1" stroke-miterlimit="4"/><g clip-path="url(#78397213ac)"><g clip-path="url(#e5f1921fbb)"><path fill="#ebebeb" d="M 279.9375 158.363281 L 279.9375 274.839844 L 212.324219 274.839844 L 212.324219 158.363281 Z M 279.9375 158.363281 " fill-opacity="1" fill-rule="nonzero"/></g></g><g clip-path="url(#83b2dbec3c)"><g clip-path="url(#6c5110ba7d)"><path fill="#221e34" d="M 262.460938 173.53125 L 262.460938 259.8125 L 204.484375 259.8125 L 204.484375 173.53125 Z M 262.460938 173.53125 " fill-opacity="1" fill-rule="nonzero"/></g></g><path stroke-linecap="butt" transform="matrix(0, 0.75, -0.75, 0, 196.235704, 158.367059)" fill="none" stroke-linejoin="miter" d="M 0.000171066 11.001772 L 155.406431 11.001772 " stroke="#ebebeb" stroke-width="22" stroke-opacity="1" stroke-miterlimit="4"/></svg>